<?xml version="1.0" encoding="UTF-8" standalone="no"?>
<!-- Created with Inkscape (http://www.inkscape.org/) -->

<svg
   version="1.1"
   id="svg2"
   xml:space="preserve"
   width="3188.1599"
   height="1238.72"
   viewBox="0 0 3188.1599 1238.72"
   sodipodi:docname="Black logo - no background.eps"
   xmlns:inkscape="http://www.inkscape.org/namespaces/inkscape"
   xmlns:sodipodi="http://sodipodi.sourceforge.net/DTD/sodipodi-0.dtd"
   xmlns="http://www.w3.org/2000/svg"
   xmlns:svg="http://www.w3.org/2000/svg"><defs
     id="defs6"><clipPath
       clipPathUnits="userSpaceOnUse"
       id="clipPath18"><path
         d="M 0,5 V 9290 H 23910 V 5 Z"
         clip-rule="evenodd"
         id="path16" /></clipPath></defs><sodipodi:namedview
     id="namedview4"
     pagecolor="#ffffff"
     bordercolor="#666666"
     borderopacity="1.0"
     inkscape:pageshadow="2"
     inkscape:pageopacity="0.0"
     inkscape:pagecheckerboard="0" /><g
     id="g8"
     inkscape:groupmode="layer"
     inkscape:label="ink_ext_XXXXXX"
     transform="matrix(1.3333333,0,0,-1.3333333,0,1238.72)"><g
       id="g10"
       transform="scale(0.1)"><g
         id="g12"><g
           id="g14"
           clip-path="url(#clipPath18)"><path
             d="m 3986.16,1836.75 c 0,-331.93 -269.07,-601.01 -600.99,-601.01 -331.85,0 -600.92,269.08 -600.92,601.01 0,331.85 269.07,601 600.92,601 331.92,0 600.99,-269.15 600.99,-601 z m 2947.79,3022.21 c -410.86,-110.88 -791.52,-256.3 -1043.79,-445.57 -150.39,-112.85 -214.42,-212.14 -241.55,-275.54 -26.26,-61.2 -23.74,-100.86 -23.11,-106.7 l 21.45,-90.93 -93.76,16.64 c 0,0 -21.45,3 -54.18,3 -80.12,0 -225.54,-17.59 -299.27,-135.56 -68.14,-108.99 -94.08,-182.41 -104.02,-222.87 107.09,-41.95 429.95,-167.66 429.95,-167.66 429.55,469.86 1059.4,907.7 1534.62,1204.22 -2.53,35.89 -11.84,94.87 -44.8,137.22 -33.51,42.9 -63.17,69.4 -81.54,83.75 z m -3585.29,201.65 c 202.04,214.9 367.8,479.48 493.19,787.35 -34.55,2.92 -77.92,5.29 -125.08,5.29 -121.83,0 -223.25,-16.4 -293.43,-47.32 -126.02,-55.68 -175.15,-97.63 -191.55,-114.66 -4.97,-166.56 -31.39,-300.31 -82.89,-419.55 -91.08,-211.19 -314.17,-440.28 -662.97,-680.97 -75.23,-51.89 -147.95,-98.41 -213.32,-138.4 130.99,27.68 293.91,76.03 468.27,160.33 227.2,110.01 431.76,260.64 607.78,447.93 z M 5478.51,4087.3 c -705.17,581.92 -1116.03,1380.16 -1107.43,1880.61 9.38,548.48 -104.02,728.05 -104.02,728.05 204.88,166.24 372.46,340.68 509.59,513.16 -5.28,26.26 -19.95,84.85 -58.9,186.19 -33.84,88.01 -129.96,142.34 -188.01,168.05 -53.07,-6.62 -111.19,-11.27 -177.59,-18.77 -231.69,-26.02 -307.24,16.57 -468.11,7.1 -26.74,-1.65 -53.55,-3.47 -80.2,-6.15 0,0 162.05,626.4 -217.66,909.12 -420.4,313.16 -1077.78,37.93 -1031.25,-477.12 0,0 146.68,10.02 170.34,10.02 125.78,0 240.99,-25.24 342.49,-75.08 270.88,-132.96 456.44,-380.35 464.33,-390.84 l 44.23,-59.53 -65.45,-34.94 c -62.06,-33.04 -111.67,-77.99 -156.54,-142.42 -6.86,-10.81 -32.17,-55.37 -32.17,-55.37 -23.82,-45.02 -46.13,-96.36 -66.8,-155.27 -152.35,-435.16 -59.3,-862.2 -54.17,-1243.41 38.8,26.81 93.52,57.88 170.57,91.95 87.46,38.64 203.54,58.2 345.01,58.2 123.26,0 220.89,-15.06 224.99,-15.7 l 77.52,-12.22 -27.76,-73.5 c -134.53,-356.69 -319.54,-661.73 -549.81,-906.59 -30.76,-32.73 -62.46,-64.27 -94.79,-94.95 10.41,-57.49 21.77,-127.44 21.77,-158.28 0,-56.7 -18.22,-129.02 -18.22,-129.02 -262.76,-220.96 -543.27,-504.87 -779.85,-759.43 135.4,48.26 355.51,116.87 512.59,116.87 106.7,0 177.36,-31.78 210.24,-94.48 65.69,-125.46 59.07,-244.46 43.3,-319.54 l 741.13,476.48 c 318.12,-189.51 357.62,-217.9 884.96,-425.78 4.89,47.64 28.55,147.4 128.39,307.17 99.99,159.93 277.66,192.11 387.28,195.42 z M 2860.36,7667.86 c 27.83,-222 66.94,-281.07 133.98,-317.34 34.46,-18.62 85.01,-28.39 146.2,-28.47 35.89,0 68.22,3.39 89.27,6.38 45.27,71.61 95.98,127.37 155.44,170.82 -66.64,75.94 -203.23,215.13 -373.64,298.8 -64.82,31.79 -137.06,51.5 -215.53,58.84 28.47,-48.03 54.49,-110.8 64.28,-189.03 z M 7735.64,5032.22 c -214.34,-36.91 -437.51,-81.7 -655.56,-135.56 11.59,-12.78 23.81,-27.05 36.27,-43.14 34.54,-44.48 52.92,-96.92 62.46,-142.66 0,0 2.6,5.84 214.97,128.31 212.14,122.55 341.86,193.05 341.86,193.05 z M 3083.29,3820.36 c -189.42,0 -504.31,-121.14 -571.89,-147.95 -226.8,-249.12 -399.19,-454.48 -446.11,-510.95 -60.88,-752.02 -208.04,-1304.84 -437.52,-1643.23 -69.63,-102.84 -169.23,-216.8 -302.27,-296.29 15.85,-28.15 51.34,-71.21 129.65,-107.33 103.78,-47.87 218.28,-57.8 276.95,-59.46 296.67,438.24 594.45,950.6 718.26,1390.65 78.07,277.35 59.54,439.1 38.56,486.81 l -25.63,45.27 41.25,31.7 c 153.78,131.78 388.3,304.4 697.28,513.15 13.56,39.43 41.56,151.18 -21.53,271.6 -6.63,12.62 -35.57,26.03 -97,26.03 z M 1210.37,1166.03 c -75,-28.55 -158.51,-45.58 -251.015,-45.58 -96.843,0 -184.457,18.69 -255.98,41.87 54.887,-78.94 149.359,-181.695 310.945,-290.918 132.8,-89.746 261.58,-116.476 348.25,-149.363 54.25,-15.141 93.84,-19.715 117.34,-20.898 60.01,81.304 104.64,140.769 168.13,231.695 -70.58,7.965 -160.48,25.867 -246.52,65.613 -111.35,51.421 -165.13,118.051 -191.15,167.581 z m 3662.49,6174.79 c 298.65,274.91 473.8,612.2 525.29,956.11 0,0 -157.72,-291.94 -317.33,-477.82 -159.69,-185.8 -376.64,-210.4 -376.64,-210.4 53.71,-40.54 105.2,-95.5 132.88,-167.5 14.9,-38.65 26.58,-72 35.8,-100.39"
             style="fill:#000000;fill-opacity:1;fill-rule:nonzero;stroke:none"
             id="path20" /><path
             d="M 9142.09,5199.61 V 4055.07 h 173.56 v 487.11 h 316.73 v 173.57 h -316.73 v 310.32 h 410.32 v 173.57 h -583.86 z m 956.61,-282.32 c -80,-79.98 -120.02,-176.49 -120.02,-289.53 0,-113.04 40.02,-209.55 120.02,-289.53 79.9,-79.98 176.4,-119.98 289.5,-119.98 113,0 209.5,39.99 289.5,119.98 80,79.98 120,176.49 120,289.53 0,113.04 -40,209.55 -120,289.53 -80,79.98 -176.5,119.98 -289.5,119.98 -113.1,0 -209.6,-40 -289.5,-119.98 z m -123.21,-702.25 c -114.11,114.11 -171.16,251.68 -171.16,412.7 0,161.03 57.05,298.6 171.16,412.71 114.11,114.1 251.71,171.16 412.71,171.16 161,0 298.6,-57.06 412.7,-171.16 114.1,-114.11 171.1,-251.68 171.1,-412.71 0,-161.02 -57,-298.59 -171.1,-412.7 -114.1,-114.1 -251.7,-171.16 -412.7,-171.16 -161,0 -298.6,57.05 -412.71,171.16 z m 1364.41,702.25 c -79.9,-79.98 -119.9,-176.49 -119.9,-289.53 0,-113.04 40,-209.55 119.9,-289.53 80,-79.98 176.5,-119.98 289.6,-119.98 113,0 209.5,39.99 289.5,119.98 80,79.98 120,176.49 120,289.53 0,113.04 -40,209.55 -120,289.53 -80,79.98 -176.5,119.98 -289.5,119.98 -113.1,0 -209.6,-40 -289.6,-119.98 z m -123.1,-702.25 c -114.1,114.11 -171.2,251.68 -171.2,412.7 0,161.03 57.1,298.6 171.2,412.71 114.1,114.1 251.7,171.16 412.7,171.16 161,0 298.6,-57.06 412.7,-171.16 114.1,-114.11 171.1,-251.68 171.1,-412.71 0,-161.02 -57,-298.59 -171.1,-412.7 -114.1,-114.1 -251.7,-171.16 -412.7,-171.16 -161,0 -298.6,57.05 -412.7,171.16 z m 986.1,984.57 v -173.56 h 242.4 v -970.99 h 174.3 v 970.99 h 242.4 v 173.56 h -659.1 z m 991,-482.28 h 185.5 c 42.7,0 79,15.2 108.8,45.59 30.4,29.86 45.6,66.12 45.6,108.78 0,42.66 -15.2,78.92 -45.6,108.78 -29.8,30.39 -66.1,45.59 -108.8,45.59 h -185.5 v -308.73 z m 0,-488.69 h 248.7 c 43.2,0 80.3,15.46 111.2,46.39 30.4,30.92 45.6,68.25 45.6,111.97 0,43.19 -15.2,79.98 -45.6,110.38 -30.9,30.92 -68,46.39 -111.2,46.39 h -248.7 v -315.13 z m -173.6,-173.56 v 1144.53 h 359.1 c 90.7,0 168,-32 232,-95.98 64,-64.52 96,-141.84 96,-231.95 0,-80.52 -25.9,-151.17 -77.6,-211.95 44.2,-30.4 78.9,-69.32 104,-116.78 26.6,-48.52 40,-100.51 40,-155.97 0,-91.71 -32.6,-169.82 -97.6,-234.34 -64.5,-65.05 -142.4,-97.58 -233.6,-97.58 h -422.3 z m 1478.1,1144.53 -723.8,-1144.54 h 205.5 l 168.8,267.14 h 388.7 v -267.14 h 174.3 v 1144.54 h -213.5 z m 39.2,-263.15 v -440.71 h -279.2 z m 369.5,263.15 V 4055.07 h 583.8 v 173.57 h -410.3 v 970.98 h -173.5 z m 723,0 V 4055.07 h 583.9 v 173.57 h -410.4 v 970.98 h -173.5 z m 1257.3,-1035.76 c -79.5,79.45 -119.2,175.43 -119.2,287.94 v 748.62 h 174.4 v -748.62 c 0,-64.52 22.6,-119.44 67.9,-164.76 45.9,-45.86 100.8,-68.79 164.8,-68.79 64.5,0 119.4,22.93 164.8,68.79 45.8,45.32 68.7,100.24 68.7,164.76 v 748.62 h 174.4 v -748.62 c 0,-112.51 -40,-208.49 -120,-287.94 -79.4,-79.44 -175.4,-119.17 -287.9,-119.17 -112,0 -207.9,39.72 -287.9,119.17 z m 1550.8,1035.76 v -818.2 l -488.7,818.2 H 17768 V 4055.07 h 173.5 v 818.2 l 489.5,-818.2 h 181.6 v 1144.54 h -174.4 z m 530.3,-1.6 h -173.6 V 4055.07 h 173.6 z m 184.7,1.6 V 4055.07 h 212.8 l 674.2,1144.54 h -201.5 l -511.1,-867.79 v 867.79 h -174.4 z m 992.6,0 V 4055.07 h 583.8 v 173.57 h -410.3 v 313.53 h 316.7 v 173.56 h -316.7 v 310.33 h 410.3 v 173.56 h -583.8 z m 887.8,-488.67 v 315.13 h 248.7 c 43.2,0 80.2,-15.46 111.2,-46.39 30.4,-30.93 45.6,-68.25 45.6,-111.97 0,-43.19 -15.2,-79.98 -45.6,-110.38 -31,-30.92 -68,-46.39 -111.2,-46.39 z m 378.2,-147.17 c 59.8,25.59 108,65.58 144.8,119.97 37.9,55.46 56.8,116.77 56.8,183.96 0,91.71 -32.5,169.82 -97.6,234.35 -64.5,65.05 -142.4,97.57 -233.5,97.57 H 20860 V 4055.09 h 173.5 v 482.28 h 196 l 250.3,-482.28 h 196 z m 667.1,-519.09 c -75.7,3.2 -145.6,23.46 -209.6,60.78 -72.5,42.13 -121.8,98.65 -147.9,169.57 l 163.1,59.98 c 13.4,-35.19 40.8,-63.72 82.4,-85.58 36.8,-18.66 76.8,-29.06 120,-31.19 66.6,-2.67 121.8,13.6 165.6,48.79 36.7,29.86 56.2,63.98 58.3,102.37 3.2,73.05 -73.3,131.44 -229.5,175.16 -244.7,68.79 -363.4,185.3 -355.9,349.53 4.8,115.17 54.1,201.29 147.9,258.34 71.5,43.72 157.3,63.18 257.6,58.38 121.6,-5.33 219.1,-47.72 292.7,-127.17 l -127.2,-118.37 c -41.5,44.79 -99.4,68.78 -173.5,71.98 -52.3,2.14 -96.8,-4.53 -133.6,-19.99 -57.6,-24.53 -87.7,-68.26 -90.4,-131.17 -3.2,-71.98 73.4,-129.84 229.6,-173.56 140.8,-39.46 240.5,-97.58 299.1,-174.36 40.5,-53.32 59.5,-112.24 56.8,-176.76 -4.3,-90.64 -45.3,-167.43 -123.2,-230.35 -72.5,-58.12 -159.4,-87.18 -260.7,-87.18 -7.5,0 -14.7,0.27 -21.6,0.8 z m 543.9,1154.93 V 4055.07 h 583.8 v 173.57 h -410.3 v 313.53 h 316.7 v 173.56 h -316.7 v 310.33 h 410.3 v 173.56 h -583.8 v -0.01"
             style="fill:#000000;fill-opacity:1;fill-rule:nonzero;stroke:none"
             id="path22" /></g></g></g></g></svg>
